<mxfile host="app.diagrams.net" modified="2021-08-04T08:50:03.934Z" agent="5.0 (Macintosh; Intel Mac OS X 10_15_7) AppleWebKit/537.36 (KHTML, like Gecko) Chrome/91.0.4472.114 Safari/537.36" etag="GEVhqMKr_ceMhBkWHnZq" version="14.9.4" type="github">
  <diagram id="spWRH_hxpfT9JZSl1zpQ" name="Page-1">
    <mxGraphModel dx="1621" dy="843" grid="1" gridSize="10" guides="1" tooltips="1" connect="1" arrows="1" fold="1" page="1" pageScale="1" pageWidth="827" pageHeight="1169" math="0" shadow="0">
      <root>
        <mxCell id="0" />
        <mxCell id="1" parent="0" />
        <mxCell id="T1BH8oKWrqryGCN57JgZ-1" value="购买+绑定&lt;br&gt;hostname" style="ellipse;shape=cloud;whiteSpace=wrap;html=1;" vertex="1" parent="1">
          <mxGeometry x="86" y="345" width="120" height="80" as="geometry" />
        </mxCell>
        <mxCell id="T1BH8oKWrqryGCN57JgZ-2" value="根据lic_ids, &lt;br&gt;生成hostname" style="text;html=1;align=center;verticalAlign=middle;resizable=0;points=[];autosize=1;strokeColor=none;" vertex="1" parent="1">
          <mxGeometry x="70" y="500" width="90" height="30" as="geometry" />
        </mxCell>
        <mxCell id="T1BH8oKWrqryGCN57JgZ-3" value="" style="endArrow=classic;html=1;exitX=0.9;exitY=-0.1;exitDx=0;exitDy=0;exitPerimeter=0;" edge="1" parent="1" source="T1BH8oKWrqryGCN57JgZ-2" target="T1BH8oKWrqryGCN57JgZ-4">
          <mxGeometry width="50" height="50" relative="1" as="geometry">
            <mxPoint x="355" y="685" as="sourcePoint" />
            <mxPoint x="151" y="615" as="targetPoint" />
            <Array as="points">
              <mxPoint x="151" y="425" />
            </Array>
          </mxGeometry>
        </mxCell>
        <mxCell id="T1BH8oKWrqryGCN57JgZ-4" value="Client&lt;br&gt;集群(仿真软件)" style="rounded=1;whiteSpace=wrap;html=1;" vertex="1" parent="1">
          <mxGeometry x="91" y="585" width="120" height="60" as="geometry" />
        </mxCell>
        <mxCell id="T1BH8oKWrqryGCN57JgZ-5" value="" style="endArrow=classic;html=1;exitX=1;exitY=0.5;exitDx=0;exitDy=0;" edge="1" parent="1" source="T1BH8oKWrqryGCN57JgZ-4" target="T1BH8oKWrqryGCN57JgZ-6">
          <mxGeometry width="50" height="50" relative="1" as="geometry">
            <mxPoint x="420" y="625" as="sourcePoint" />
            <mxPoint x="310" y="615" as="targetPoint" />
          </mxGeometry>
        </mxCell>
        <mxCell id="T1BH8oKWrqryGCN57JgZ-6" value="license_proxy" style="rounded=1;whiteSpace=wrap;html=1;" vertex="1" parent="1">
          <mxGeometry x="350" y="585" width="120" height="60" as="geometry" />
        </mxCell>
        <mxCell id="T1BH8oKWrqryGCN57JgZ-7" value="license server" style="rounded=1;whiteSpace=wrap;html=1;" vertex="1" parent="1">
          <mxGeometry x="600" y="585" width="120" height="60" as="geometry" />
        </mxCell>
        <mxCell id="T1BH8oKWrqryGCN57JgZ-8" value="" style="endArrow=classic;html=1;entryX=0;entryY=0.5;entryDx=0;entryDy=0;entryPerimeter=0;" edge="1" parent="1" target="T1BH8oKWrqryGCN57JgZ-7">
          <mxGeometry width="50" height="50" relative="1" as="geometry">
            <mxPoint x="470" y="615" as="sourcePoint" />
            <mxPoint x="590" y="615" as="targetPoint" />
          </mxGeometry>
        </mxCell>
        <mxCell id="T1BH8oKWrqryGCN57JgZ-9" value="1. authenticate&lt;br&gt;" style="text;html=1;align=center;verticalAlign=middle;resizable=0;points=[];autosize=1;strokeColor=none;" vertex="1" parent="1">
          <mxGeometry x="411" y="665" width="90" height="20" as="geometry" />
        </mxCell>
        <mxCell id="T1BH8oKWrqryGCN57JgZ-12" value="" style="shape=parallelogram;perimeter=parallelogramPerimeter;whiteSpace=wrap;html=1;fixedSize=1;" vertex="1" parent="1">
          <mxGeometry x="350" y="725" width="120" height="60" as="geometry" />
        </mxCell>
        <mxCell id="T1BH8oKWrqryGCN57JgZ-13" value="" style="endArrow=classic;html=1;exitX=0.5;exitY=1;exitDx=0;exitDy=0;" edge="1" parent="1" source="T1BH8oKWrqryGCN57JgZ-6">
          <mxGeometry width="50" height="50" relative="1" as="geometry">
            <mxPoint x="420" y="605" as="sourcePoint" />
            <mxPoint x="410" y="725" as="targetPoint" />
          </mxGeometry>
        </mxCell>
        <mxCell id="T1BH8oKWrqryGCN57JgZ-15" value="license bought&lt;br&gt;&amp;nbsp;record" style="ellipse;shape=cloud;whiteSpace=wrap;html=1;" vertex="1" parent="1">
          <mxGeometry x="300" y="345" width="120" height="80" as="geometry" />
        </mxCell>
        <mxCell id="T1BH8oKWrqryGCN57JgZ-16" value="license check&lt;br&gt;&amp;nbsp;record" style="ellipse;shape=cloud;whiteSpace=wrap;html=1;" vertex="1" parent="1">
          <mxGeometry x="520" y="345" width="120" height="80" as="geometry" />
        </mxCell>
        <mxCell id="T1BH8oKWrqryGCN57JgZ-17" value="(hmac, sha256)" style="text;html=1;align=center;verticalAlign=middle;resizable=0;points=[];autosize=1;strokeColor=none;" vertex="1" parent="1">
          <mxGeometry x="360" y="745" width="100" height="20" as="geometry" />
        </mxCell>
        <mxCell id="T1BH8oKWrqryGCN57JgZ-18" value="" style="endArrow=classic;html=1;exitX=0.175;exitY=-0.05;exitDx=0;exitDy=0;exitPerimeter=0;" edge="1" parent="1" source="T1BH8oKWrqryGCN57JgZ-6">
          <mxGeometry width="50" height="50" relative="1" as="geometry">
            <mxPoint x="420" y="595" as="sourcePoint" />
            <mxPoint x="371" y="435" as="targetPoint" />
          </mxGeometry>
        </mxCell>
        <mxCell id="T1BH8oKWrqryGCN57JgZ-19" value="2.&amp;nbsp; authorize&lt;br&gt;&amp;nbsp;（ lic_ids,&lt;br&gt;&amp;nbsp; &amp;nbsp; &amp;nbsp; &amp;nbsp; &amp;nbsp; &amp;nbsp; &amp;nbsp; &amp;nbsp; &amp;nbsp;feature_name,&lt;br&gt;&amp;nbsp; &amp;nbsp; &amp;nbsp; &amp;nbsp; &amp;nbsp; &amp;nbsp; &amp;nbsp; &amp;nbsp; &amp;nbsp; &amp;nbsp;feature_count）" style="text;html=1;align=center;verticalAlign=middle;resizable=0;points=[];autosize=1;strokeColor=none;" vertex="1" parent="1">
          <mxGeometry x="325" y="465" width="160" height="60" as="geometry" />
        </mxCell>
        <mxCell id="T1BH8oKWrqryGCN57JgZ-21" value="" style="endArrow=classic;html=1;entryX=0.55;entryY=0.95;entryDx=0;entryDy=0;entryPerimeter=0;" edge="1" parent="1" target="T1BH8oKWrqryGCN57JgZ-16">
          <mxGeometry width="50" height="50" relative="1" as="geometry">
            <mxPoint x="470" y="575" as="sourcePoint" />
            <mxPoint x="600" y="525" as="targetPoint" />
            <Array as="points">
              <mxPoint x="470" y="525" />
              <mxPoint x="586" y="525" />
            </Array>
          </mxGeometry>
        </mxCell>
        <mxCell id="T1BH8oKWrqryGCN57JgZ-22" value="3.&amp;nbsp; report check record&lt;br&gt;&amp;nbsp; &amp;nbsp; &amp;nbsp; &amp;nbsp; （action, lic_id, feature）" style="text;html=1;align=center;verticalAlign=middle;resizable=0;points=[];autosize=1;strokeColor=none;" vertex="1" parent="1">
          <mxGeometry x="570" y="471" width="180" height="30" as="geometry" />
        </mxCell>
        <mxCell id="T1BH8oKWrqryGCN57JgZ-23" value="(endpoint)" style="text;html=1;align=center;verticalAlign=middle;resizable=0;points=[];autosize=1;strokeColor=none;" vertex="1" parent="1">
          <mxGeometry x="525" y="525" width="70" height="20" as="geometry" />
        </mxCell>
        <mxCell id="T1BH8oKWrqryGCN57JgZ-25" value="" style="endArrow=classic;html=1;entryX=0.4;entryY=0.1;entryDx=0;entryDy=0;entryPerimeter=0;" edge="1" parent="1" target="T1BH8oKWrqryGCN57JgZ-15">
          <mxGeometry width="50" height="50" relative="1" as="geometry">
            <mxPoint x="190" y="365" as="sourcePoint" />
            <mxPoint x="240" y="315" as="targetPoint" />
            <Array as="points">
              <mxPoint x="190" y="315" />
              <mxPoint x="250" y="285" />
              <mxPoint x="330" y="305" />
            </Array>
          </mxGeometry>
        </mxCell>
        <mxCell id="T1BH8oKWrqryGCN57JgZ-28" value="生成购买&lt;br&gt;记录" style="text;html=1;align=center;verticalAlign=middle;resizable=0;points=[];autosize=1;strokeColor=none;" vertex="1" parent="1">
          <mxGeometry x="280" y="270" width="60" height="30" as="geometry" />
        </mxCell>
        <mxCell id="T1BH8oKWrqryGCN57JgZ-29" value=":&lt;br&gt;1. hostname&lt;br&gt;&amp;nbsp; &amp;nbsp; &amp;nbsp; &amp;nbsp; &amp;nbsp; &amp;nbsp; &amp;nbsp; &amp;nbsp; &amp;nbsp; &amp;nbsp; &amp;nbsp; &amp;nbsp; 2. CDLMD_LICENSE_FILE&lt;br&gt;&amp;nbsp; &amp;nbsp; &amp;nbsp; &amp;nbsp; 3. LM_PROJECT&lt;br&gt;&lt;div style=&quot;text-align: left&quot;&gt;&lt;font color=&quot;#dd1144&quot; face=&quot;Consolas, monospace, tahoma, Arial&quot;&gt;&lt;span style=&quot;font-size: 14px ; background-color: rgb(246 , 246 , 246)&quot;&gt;&lt;br&gt;&lt;/span&gt;&lt;/font&gt;&lt;/div&gt;&lt;div style=&quot;text-align: left&quot;&gt;&lt;font color=&quot;#dd1144&quot; face=&quot;Consolas, monospace, tahoma, Arial&quot;&gt;&lt;span style=&quot;font-size: 14px ; background-color: rgb(246 , 246 , 246)&quot;&gt;&lt;br&gt;&lt;/span&gt;&lt;/font&gt;&lt;/div&gt;" style="text;html=1;align=center;verticalAlign=middle;resizable=0;points=[];autosize=1;strokeColor=none;" vertex="1" parent="1">
          <mxGeometry x="10" y="645" width="240" height="90" as="geometry" />
        </mxCell>
      </root>
    </mxGraphModel>
  </diagram>
</mxfile>
